<svg xmlns="http://www.w3.org/2000/svg" viewBox="0 0 48 48"><path d="M20.7 28.1H13c-.3 0-.5-.2-.5-.5s.2-.5.5-.5h7.2V15.3H13c-.3 0-.5-.2-.5-.5s.2-.5.5-.5h7.7c.3 0 .5.2.5.5v12.8c0 .2-.3.5-.5.5z"/><path d="M15 28.1h-2.8c-.3 0-.5-.2-.5-.5s.2-.5.5-.5h2.3V15.3h-2.3c-.3 0-.5-.2-.5-.5s.2-.5.5-.5H15c.3 0 .5.2.5.5v12.8c0 .2-.3.5-.5.5z"/><circle cx="17.8" cy="17.6" r=".7"/><path d="M33.5 26.6h-3.6c-.3 0-.5-.2-.5-.5s.2-.5.5-.5h3.6c.5 0 .9-.4.9-.9s-.4-.9-.9-.9h-2.8c-.3 0-.5-.2-.5-.5s.2-.5.5-.5h2.8c1.1 0 1.9.9 1.9 1.9s-.9 1.9-1.9 1.9z"/><path d="M33.5 23.8h-2.8c-.3 0-.5-.2-.5-.5s.2-.5.5-.5h2.8c.5 0 .9-.4.9-.9s-.4-.9-.9-.9h-2.8c-.3 0-.5-.2-.5-.5s.2-.5.5-.5h2.8c1.1 0 1.9.9 1.9 1.9s-.9 1.9-1.9 1.9z"/><path d="M33.5 20.9h-2.8c-.3 0-.5-.2-.5-.5s.2-.5.5-.5h2.8c.5 0 .9-.4.9-.9s-.4-.9-.9-.9h-2.8c-.3 0-.5-.2-.5-.5s.2-.5.5-.5h2.8c1.1 0 1.9.9 1.9 1.9s-.9 1.9-1.9 1.9z"/><path d="M32 18.1h-1.4c-.3 0-.5-.2-.5-.5s.2-.5.5-.5H32c.5 0 .9-.4.9-.9s-.4-.9-.9-.9h-7.1c-.3 0-.7.2-.8.5-.3.6-.9.9-1.6.9h-1.8c-.3 0-.5-.2-.5-.5s.2-.5.5-.5h1.8c.3 0 .6-.2.8-.4.3-.6 1-1 1.7-1h7c1.1 0 1.9.9 1.9 1.9s-.8 1.9-1.9 1.9zM25.4 33.8h-.5c-.3 0-.5-.2-.5-.5V30c0-.5-.2-1-.5-1.4L22.8 27c-.2-.2-.4-.4-.7-.4h-1.4c-.3 0-.5-.2-.5-.5s.2-.5.5-.5h1.4c.6 0 1.2.3 1.5.8l1.1 1.5c.4.6.7 1.3.7 2v2.8c1.4 0 2.6-1.2 2.6-2.6v-2.6c0-.3.2-.5.5-.5s.5.2.5.5v2.6c0 2-1.6 3.7-3.6 3.7z"/><path d="M28.5 29.5c-.3 0-.5-.2-.5-.5v-1.4c0-1.1.9-1.9 1.9-1.9H32c.3 0 .5.2.5.5s-.2.5-.5.5h-2.1c-.5 0-.9.4-.9.9V29c0 .3-.2.5-.5.5z"/><path d="M24 48C10.8 48 0 37.2 0 24S10.8 0 24 0s24 10.8 24 24-10.8 24-24 24zm0-47C11.3 1 1 11.3 1 24s10.3 23 23 23 23-10.3 23-23S36.7 1 24 1z"/></svg>