<svg xmlns="http://www.w3.org/2000/svg" enable-background="new 0 0 47.5 47.5" viewBox="0 0 47.5 47.5"><defs><clipPath id="a" clipPathUnits="userSpaceOnUse"><path d="M 0,38 38,38 38,0 0,0 0,38 Z"/></clipPath></defs><g clip-path="url(#a)" transform="matrix(1.25 0 0 -1.25 0 47.5)"><path fill="#a0041e" d="m 0,0 8,7 16,-1 1,-16 -7,-8 c 0,0 0,5.999 -6,12 C 5.999,0.001 0,0 0,0" transform="translate(2 20)"/><path fill="#ffac33" d="m 0,0 c 0,0 -0.036,7.979 2.985,11 3.021,3.021 11.042,2.813 11.042,2.813 C 14.027,13.813 14.026,6 11.026,3 8.026,0 0,0 0,0" transform="translate(1.973 2)"/><path fill="#ffcc4d" d="M 0,0 C 0,2.209 1.791,4 4,4 6.209,4 8,2.209 8,0 8,-2.209 6.209,-4 4,-4 1.791,-4 0,-2.209 0,0" transform="translate(5.999 10)"/><path fill="#55acee" d="m 0,0 c 0,0 -10,0 -22,-10 -6,-5 -6,-14 -4,-16 2,-2 11,-2 16,4 C 0,-10 0,0 0,0" transform="translate(36.999 37)"/><path d="M 0,0 C -1.623,0 -3.013,-0.971 -3.641,-2.36 -3.139,-2.133 -2.586,-2 -2,-2 0.209,-2 2,-3.791 2,-6 2,-6.586 1.867,-7.139 1.641,-7.64 3.029,-7.013 4,-5.623 4,-4 4,-1.791 2.209,0 0,0" transform="translate(27.999 32)"/><path fill="#a0041e" d="M 0,0 C 0,0 0,4 1,5 2,6 14.001,15.999 15,15 15.999,14.001 5.999,2 4.999,1 3.999,0 0,0 0,0" transform="translate(9 9)"/></g></svg>